<svg xmlns="http://www.w3.org/2000/svg" viewBox="0 0 512 512">
  <defs>
    <style>
      .cell { fill:#F2A3A6; stroke:#C96C70; stroke-width:4; stroke-linejoin:round; stroke-linecap:round; }
      .cellFaint { fill:#F2A3A6; stroke:#C96C70; stroke-width:4; opacity:0.30; stroke-linejoin:round; stroke-linecap:round; }
      .nuc { fill:#B8575E; opacity:0.90; }
      .nuc2 { fill:#A94B52; opacity:0.88; }
      .nucLight { fill:#D98A8F; opacity:0.35; }
      .speck { fill:#9E4248; opacity:0.25; }
    </style>
  </defs>

  <!-- A few faint/background silhouettes (depth) -->
  <g opacity="0.30">
    <path class="cellFaint" d="M410,150 C438,126 480,144 470,176 C464,196 446,196 446,214
         C446,244 410,252 392,236 C378,224 378,210 366,202
         C346,190 358,162 378,154 C392,148 398,154 410,150 Z"></path>
    <path class="cellFaint" d="M104,168 C130,146 170,160 166,190 C164,206 150,206 152,222
         C156,250 124,258 108,246 C96,236 96,224 86,218
         C68,206 78,182 96,172 C98,170 102,170 104,168 Z"></path>
    <path class="cellFaint" d="M430,290 C454,270 490,282 486,312 C484,328 470,328 472,344
         C476,372 444,378 430,364 C418,352 418,340 406,334
         C388,324 400,302 416,294 C420,292 426,292 430,290 Z"></path>
  </g>

  <!-- 15 MAIN CELLS (all different) -->
  <g>

    <!-- 1: big central, many blebs -->
    <path class="cell" d="M190,210
         C232,168 314,176 336,224
         C346,246 330,254 346,272
         C366,294 336,336 292,338
         C266,340 258,324 232,328
         C200,332 164,300 164,262
         C164,238 184,236 178,216
         C176,210 182,214 190,210 Z"></path>

    <!-- 2: upper-mid, flatter, spiky edges -->
    <path class="cell" d="M250,124
         C282,102 334,112 340,150
         C344,176 320,176 324,198
         C330,234 280,240 254,220
         C238,208 238,192 222,186
         C198,176 210,144 232,134
         C238,132 244,128 250,124 Z"></path>

    <!-- 3: left-mid, small and pointy -->
    <path class="cell" d="M130,228
         C156,206 194,216 190,250
         C188,268 172,270 176,286
         C184,312 150,320 132,304
         C118,292 118,278 106,272
         C88,262 96,240 112,232
         C118,230 124,232 130,228 Z"></path>

    <!-- 4: right-mid, larger, stretched -->
    <path class="cell" d="M326,254
         C364,226 420,248 412,300
         C408,322 388,320 388,344
         C388,382 338,392 310,366
         C292,350 300,332 282,320
         C254,300 276,264 302,258
         C310,256 318,258 326,254 Z"></path>

    <!-- 5: lower-mid, chunky -->
    <path class="cell" d="M236,302
         C270,272 334,286 334,332
         C334,352 316,356 320,376
         C328,410 286,426 256,406
         C238,394 236,378 218,372
         C192,364 202,324 224,312
         C228,310 232,306 236,302 Z"></path>

    <!-- 6: upper-right, compact -->
    <path class="cell" d="M344,176
         C372,154 414,168 414,202
         C414,222 398,224 402,242
         C410,272 378,284 354,270
         C338,260 338,246 324,240
         C304,232 312,200 332,186
         C336,182 340,180 344,176 Z"></path>

    <!-- 7: upper-left, elongated -->
    <path class="cell" d="M170,160
         C198,132 244,144 244,180
         C244,198 230,198 234,218
         C242,250 206,262 182,246
         C166,236 164,222 150,216
         C128,206 138,176 156,166
         C160,164 166,164 170,160 Z"></path>

    <!-- 8: lower-left, very spiky -->
    <path class="cell" d="M118,306
         C140,284 178,296 176,328
         C174,346 158,348 162,364
         C170,394 134,404 114,388
         C100,376 104,360 90,354
         C70,346 80,320 96,310
         C102,306 112,310 118,306 Z"></path>

    <!-- 9: lower-right peripheral -->
    <path class="cell" d="M380,320
         C404,298 444,308 444,340
         C444,358 428,360 432,378
         C440,410 402,418 382,402
         C368,390 368,376 354,368
         C334,358 346,334 364,324
         C368,322 374,324 380,320 Z"></path>

    <!-- 10: small near center, odd lobes -->
    <path class="cell" d="M222,246
         C240,232 268,238 270,260
         C272,276 258,278 258,292
         C258,312 232,316 220,304
         C210,294 212,284 202,280
         C186,274 194,254 206,248
         C210,246 218,248 222,246 Z"></path>

    <!-- 11: right-upper, more blebs -->
    <path class="cell" d="M388,220
         C410,204 442,214 440,244
         C438,260 424,262 426,278
         C430,304 400,312 384,300
         C372,290 372,278 360,272
         C344,264 354,240 370,230
         C374,228 382,224 388,220 Z"></path>

    <!-- 12: left-lower, stretched -->
    <path class="cell" d="M160,346
         C182,326 220,336 220,366
         C220,384 204,386 208,404
         C216,434 182,442 164,428
         C152,418 152,406 140,400
         C122,392 130,368 146,356
         C150,352 154,350 160,346 Z"></path>

    <!-- 13: top-center small -->
    <path class="cell" d="M276,86
         C294,72 322,80 322,102
         C322,116 310,118 312,130
         C316,150 292,156 278,146
         C268,138 268,128 260,124
         C246,118 252,98 264,90
         C268,88 272,88 276,86 Z"></path>

    <!-- 14: far right small -->
    <path class="cell" d="M452,254
         C466,242 488,248 488,266
         C488,278 478,280 480,290
         C484,308 466,312 456,304
         C448,298 448,290 440,286
         C428,280 434,264 444,258
         C446,256 450,256 452,254 Z"></path>

    <!-- 15: far left small -->
    <path class="cell" d="M70,260
         C84,248 106,252 106,270
         C106,282 96,284 98,294
         C102,312 84,316 74,308
         C66,302 66,294 58,290
         C46,284 52,268 62,262
         C64,260 68,260 70,260 Z"></path>

    <!-- 15 NUCLEI: all different (pleomorphism + eccentricity) -->
    <path class="nuc" d="M248,238 C268,212 308,220 316,250 C324,280 292,296 268,286 C244,276 238,260 248,238 Z"></path>
    <path class="nuc2" d="M282,148 C300,136 324,150 318,172 C312,196 286,196 274,178 C266,166 270,154 282,148 Z"></path>
    <path class="nuc" d="M148,248 C162,236 184,242 182,260 C180,282 160,286 148,274 C140,266 140,254 148,248 Z"></path>
    <path class="nuc2" d="M340,292 C364,278 392,296 380,322 C368,350 334,348 326,324 C322,310 326,300 340,292 Z"></path>
    <path class="nuc" d="M270,352 C292,338 318,354 308,378 C298,404 270,402 258,384 C250,372 256,360 270,352 Z"></path>
    <path class="nuc2" d="M366,208 C384,198 402,212 396,232 C390,252 368,254 356,238 C348,226 352,214 366,208 Z"></path>
    <path class="nuc" d="M198,176 C212,164 232,172 230,190 C228,210 210,214 198,202 C190,194 190,184 198,176 Z"></path>
    <path class="nuc2" d="M126,332 C142,322 160,334 156,350 C152,368 134,370 124,360 C118,354 118,338 126,332 Z"></path>
    <path class="nuc" d="M406,336 C422,326 440,340 434,358 C428,378 408,380 396,366 C388,356 392,344 406,336 Z"></path>
    <path class="nuc2" d="M236,264 C246,256 260,260 260,272 C260,286 244,290 236,282 C230,276 230,268 236,264 Z"></path>
    <path class="nuc" d="M406,242 C418,232 434,240 432,256 C430,274 414,276 404,266 C398,260 398,248 406,242 Z"></path>
    <path class="nuc2" d="M184,374 C198,364 216,374 212,392 C208,410 190,410 180,398 C174,392 174,380 184,374 Z"></path>
    <path class="nuc" d="M292,104 C304,96 318,104 316,116 C314,130 300,132 292,124 C286,118 286,110 292,104 Z"></path>
    <path class="nuc2" d="M466,270 C474,264 486,270 484,280 C482,292 470,294 464,286 C460,282 460,274 466,270 Z"></path>
    <path class="nuc" d="M84,276 C92,270 104,274 104,284 C104,296 92,298 86,292 C82,288 82,280 84,276 Z"></path>

    <!-- A few lighter nuclear regions -->
    <ellipse class="nucLight" cx="286" cy="252" rx="10" ry="6"></ellipse>
    <ellipse class="nucLight" cx="350" cy="316" rx="9" ry="5"></ellipse>
    <ellipse class="nucLight" cx="206" cy="190" rx="8" ry="5"></ellipse>

    <!-- Cytoplasmic speckles sprinkled around -->
    <circle class="speck" cx="214" cy="252" r="3"></circle>
    <circle class="speck" cx="230" cy="276" r="2.6"></circle>
    <circle class="speck" cx="290" cy="300" r="3"></circle>
    <circle class="speck" cx="318" cy="284" r="2.5"></circle>
    <circle class="speck" cx="256" cy="380" r="2.6"></circle>
    <circle class="speck" cx="184" cy="236" r="2.4"></circle>
    <circle class="speck" cx="352" cy="266" r="2.6"></circle>
    <circle class="speck" cx="156" cy="300" r="2.3"></circle>
    <circle class="speck" cx="382" cy="370" r="2.3"></circle>

    <!-- Detached blebs/droplets (left side) -->
    <g opacity="0.42">
      <circle class="cellFaint" cx="54" cy="310" r="9"></circle>
      <circle class="cellFaint" cx="74" cy="296" r="6.5"></circle>
      <circle class="cellFaint" cx="82" cy="320" r="5.5"></circle>
      <circle class="cellFaint" cx="62" cy="334" r="4.8"></circle>
    </g>

  </g>
</svg>