<svg xmlns="http://www.w3.org/2000/svg" viewBox="0 0 512 256">
  <defs>
    <filter id="soft" x="-20%" y="-20%" width="140%" height="140%">
      <feGaussianBlur stdDeviation="0.6"></feGaussianBlur>
    </filter>
  </defs>

  <!-- Outer cell body -->
  <path d="M74,156
       C108,138 140,118 176,98
       C212,78 250,62 292,56
       C342,48 382,58 420,78
       C446,92 458,103 470,114
       C478,121 482,126 483,131
       C485,139 474,146 460,151
       C440,158 418,162 395,165
       C362,169 332,173 300,184
       C260,198 222,216 184,222
       C150,228 122,223 104,212
       C92,204 88,195 84,187
       C80,179 74,170 66,165
       C58,160 58,160 74,156 Z" fill="#F1D1C2" stroke="#B88E7C" stroke-width="6" stroke-linejoin="round" stroke-linecap="round"></path>

  <!-- Slight highlight (optional) -->
  <path d="M110,160
       C144,140 170,124 202,106
       C236,88 270,74 306,68
       C340,62 372,70 404,86" fill="none" stroke="#FFFFFF" stroke-opacity="0.28" stroke-width="6" stroke-linecap="round" filter="url(#soft)"></path>

  <!-- Nucleus -->
  <ellipse cx="292" cy="132" rx="68" ry="38" fill="#D8B1A2" stroke="#B88E7C" stroke-opacity="0.35" stroke-width="4"></ellipse>

  <!-- Tiny shading dot -->
  <ellipse cx="320" cy="120" rx="12" ry="8" fill="#C79C8C" opacity="0.35"></ellipse>
</svg>